/* XPM */
static char *_82d3c02487e4f95f191294ea38eccd42n3iyb85H5uV0kc6[] = {
/* columns rows colors chars-per-pixel */
"32 32 136 2 ",
"   c None",
".  c #002E00",
"X  c #003600",
"o  c #003900",
"O  c #004E02",
"+  c #004E08",
"@  c #005200",
"#  c #075907",
"$  c #00530A",
"%  c #025A0B",
"&  c #085908",
"*  c #00620F",
"=  c #006C0D",
"-  c #00700F",
";  c #006712",
":  c #006B14",
">  c #006E18",
",  c #007413",
"<  c #007B17",
"1  c #007C1A",
"2  c #2C7C32",
"3  c #327A36",
"4  c #377F3C",
"5  c #00831C",
"6  c #008A1D",
"7  c #008624",
"8  c #008A22",
"9  c #009226",
"0  c #009529",
"q  c #0A932D",
"w  c #019C2C",
"e  c #009E30",
"r  c #248534",
"t  c #00A12C",
"y  c #00AB2C",
"u  c #00A433",
"i  c #08A436",
"p  c #00AC36",
"a  c #13A338",
"s  c #00B233",
"d  c #00B23B",
"f  c #05B83A",
"g  c #3A8A43",
"h  c #309343",
"j  c #1CAC45",
"k  c #02BA45",
"l  c #0ABF46",
"z  c #18B549",
"x  c #17B94B",
"c  c #27BA55",
"v  c #28BE58",
"b  c #438D4A",
"n  c #46954F",
"m  c #43AF5F",
"M  c #599960",
"N  c #58A664",
"B  c #43B060",
"V  c #4AB164",
"C  c #66B576",
"Z  c #67B779",
"A  c #6BB87B",
"S  c #0CC247",
"D  c #03C04A",
"F  c #0EC44C",
"G  c #12C14C",
"H  c #0BCB53",
"J  c #1DC355",
"K  c #14CC57",
"L  c #18CE57",
"P  c #14D95E",
"I  c #25C65B",
"U  c #25C95D",
"Y  c #1BD763",
"T  c #14DC60",
"R  c #1CDD65",
"E  c #28CC61",
"W  c #22DF6A",
"Q  c #2ADC6C",
"!  c #27E26D",
"~  c #2CE471",
"^  c #32E977",
"/  c #43E27F",
"(  c #7AB885",
")  c #3FF282",
"_  c #78C488",
"`  c #7BCC90",
"'  c #4BE685",
"]  c #4DE887",
"[  c #4EE989",
"{  c #5AE78F",
"}  c #54EA8C",
"|  c #41F384",
" . c #4BF48B",
".. c #51F38E",
"X. c #55F390",
"o. c #5CF395",
"O. c #5FF698",
"+. c #6FED9E",
"@. c #63F59B",
"#. c #6CF49F",
"$. c #79EFA5",
"%. c #6CF4A0",
"&. c #76F5A6",
"*. c #7DF6AA",
"=. c #7BF8AA",
"-. c #81B98B",
";. c #82D297",
":. c #85D198",
">. c #8AD49D",
",. c #9FD4AD",
"<. c #A0D1AC",
"1. c #83F6AE",
"2. c #87F7B0",
"3. c #8CF6B3",
"4. c #92F5B7",
"5. c #95F7B9",
"6. c #9CF5BD",
"7. c #9BF9BE",
"8. c #9FF7C1",
"9. c #9FF8C0",
"0. c #A3FAC3",
"q. c #AAF9C7",
"w. c #ADFCCB",
"e. c #B2FBCD",
"r. c #B7FFD2",
"t. c #B7FFD2",
"y. c #B5FFD2",
"u. c #B8FFD3",
"i. c #B9FFD4",
"p. c #BBFFD5",
"a. c #BAFFD4",
"s. c #BDFFD8",
"d. c #D5FBE6",
"f. c #D4FFE7",
"g. c #D7FFEA",
"h. c #E1FFF2",
/* pixels */
"                                                                ",
"                          @ @ @ @ @ @                           ",
"                          & & & # # #                           ",
"                      @ 3 <.,.>.>.>.:.2 @                       ",
"                      @ 4 d.g.p.y.u.e.2 @                       ",
"                  @ g _ ;.0.4.} [ [ ] a 6 = @                   ",
"                  @ n i.w.1.+.R P T P f y - @                   ",
"              @ b C ` 7.7.7.2.W T H H t 6 5 1 * X               ",
"            @ O N s.0.1.3.e.6.W T k k 6 , 9 w ; X o             ",
"            b M ` 0.7.5.4.4.$.W T k d 9 5 9 t < % $             ",
"        @ @ -.h.e.1.7.e.6.{ ' R P d p w 0 w t 9 6 ; o o         ",
"        @ @ ( g.9.#.1.6.4.$.+.] ' E J i w w w 9 8 ; o o         ",
"        @ @ A i.=.| ..@.=.u.y.e.0.%.o.z t u e w 0 > o o         ",
"        @ @ A i.=.|  .O.&.u.y.w.8.@.X.z t u e 0 9 : o o         ",
"        @ @ Z y.=.) | | @.y.e.2.*. .| x p p u 0 7 ; o o         ",
"        @ @ Z y.=.| | | O.y.e.2.*. .) F p p u 9 8 ; o o         ",
"        @ @ Z y.=.)  .) o.e.q.2.*. .^ G d u u 0 9 : o o         ",
"        @ @ Z w.=.) ) ) o.q.q.2.&. .| G p u e 0 9 > o o         ",
"        @ @ V 1.O.) ) | X.3.*.X. .X...G p u e 0 7 ; X o         ",
"        @ @ m &.o.) ) ) ..*.&.| | X.o.G p u w 8 6 ; o o         ",
"        @ @ m &.[ ! ^ )  .%.O.X.X.O.o.j w 8 6 6 6 ; o o         ",
"        @ @ B &.' R ~ )  .%.O.o.o.@.o.j 0 6 1 5 6 ; o o         ",
"            r h j S K ~ Q E E E I v c q 5 1 1 ; % $             ",
"            @ O 1 d l Y K p p u u w 9 5 < 1 5 $ X X             ",
"              @ , 5 w G l p p p p 8 6 1 < ; % + o               ",
"                  @ , s p p p d p 5 < 5 1 $ o                   ",
"                  @ : 7 8 u p p u 6 5 ; * + o                   ",
"                      o $ e u e e 0 9 + o                       ",
"                      X $ 7 7 7 7 1 1 + o                       ",
"                          X + o o X .                           ",
"                          o o o X . .                           ",
"                                                                "
};
