/* XPM */
static char *b283be4da82d438cfd8d1425b14e4ba9siOYWth3FbNKkWMp[] = {
/* columns rows colors chars-per-pixel */
"32 32 109 2 ",
"   c None",
".  c #020101",
"X  c #0A0706",
"o  c #0C0807",
"O  c #01070B",
"+  c #0E0A09",
"@  c #100504",
"#  c #1D0806",
"$  c #120C0B",
"%  c #17100E",
"&  c #18110E",
"*  c #020C13",
"=  c #1F0F12",
"-  c #03111B",
";  c #141111",
":  c #1D1414",
">  c #101318",
",  c #1E1819",
"<  c #220907",
"1  c #220C0A",
"2  c #340E0B",
"3  c #21100F",
"4  c #36100D",
"5  c #3A110D",
"6  c #200F12",
"7  c #211718",
"8  c #231B1B",
"9  c #321D1C",
"0  c #2D2424",
"q  c #3D2B25",
"w  c #332829",
"e  c #382C2C",
"r  c #3B2F30",
"t  c #3F3334",
"y  c #461310",
"u  c #4D1511",
"i  c #531712",
"p  c #422F27",
"a  c #46322A",
"s  c #4A342C",
"d  c #4F382F",
"f  c #533B32",
"g  c #593E35",
"h  c #5C4037",
"j  c #51413F",
"k  c #5E4238",
"l  c #62453B",
"z  c #67483D",
"x  c #694A3F",
"c  c #072942",
"v  c #093657",
"b  c #0C416B",
"n  c #104E7E",
"m  c #1C4F79",
"M  c #1F517B",
"N  c #534345",
"B  c #5F4B47",
"V  c #6E4E42",
"C  c #704F43",
"Z  c #735145",
"A  c #725C5E",
"S  c #775F61",
"D  c #786063",
"F  c #84241D",
"G  c #982A21",
"H  c #A82D24",
"J  c #BE342A",
"K  c #C2352B",
"L  c #C8372C",
"P  c #CE382D",
"I  c #D53A2F",
"U  c #DB3C30",
"Y  c #E13E32",
"T  c #D04339",
"R  c #EC4134",
"E  c #F44336",
"W  c #F84437",
"Q  c #896162",
"!  c #8B6F72",
"~  c #8E7275",
"^  c #917477",
"/  c #D84A40",
"(  c #114F81",
")  c #105081",
"_  c #B98789",
"`  c #C59EA2",
"'  c #CAA3A7",
"]  c #CDA5A9",
"[  c #D6ADB1",
"{  c #D9AFB3",
"}  c #DCB1B5",
"|  c #E2B6BB",
" . c #E6B9BE",
".. c #E7BABE",
"X. c #E5B9BD",
"o. c #E9BBC0",
"O. c #EABCC0",
"+. c #EBBDC1",
"@. c #ECBEC3",
"#. c #EFC0C5",
"$. c #FBCACF",
"%. c #FCCBD0",
"&. c #FDCBD0",
"*. c #FDCCD1",
"=. c #FECCD1",
"-. c #FFCDD2",
";. c #FFCED3",
":. c #FFCFD5",
">. c #FFD0D5",
/* pixels */
"                      . + o $ + o o + + .                       ",
"                  . X $ g s k k a a l h % .                     ",
"                . $ q a x d f f x g f V l % .                   ",
"              . % h z g d d x f x x d f V l % .                 ",
"              + h g d x V g x f f g x f f V l % .               ",
"              $ l Z f f C C g x x f V V f f V k +               ",
"              o d V l a a l l g g x h V V f f k +               ",
"              $ l s & 8 8 7 : g Z l a f V V g a o               ",
"              + g a 8 ` { ~ , & g 8 % g h Z Z l $               ",
"              . & s 0 | :.@.^ 0 e D , % h Z h h +               ",
"                . : e X.=.X.@.| | | D , : k z ; .               ",
"                $ A { =.| N | :.>.| t A 7 & f +                 ",
"                . 0 } :.| N | :.-.| N ] ^ 7 + .                 ",
"                  $ ! +.%.+.%.-.-.$...$.o.A +                   ",
"                  . 8 ^ [ X.%.-.>.$...| ' w .                   ",
"                      ; 9 e ] -.-.] e 9 7                       ",
"                  . @ 2 H 2 w ' ' w 2 H 2 @ .                   ",
"                . # F I E K 2 9 7 4 K R I F # .                 ",
"                @ F Y W E E U J 2 K E E E Y F X                 ",
"              . 2 I E Y Y U U I 5 I E E U E I 4 .               ",
"              # J E K u K y y J 5 I W I u K E K #               ",
"              < I U 2 2 I G G L 5 I W U 2 4 U U <               ",
"              < I I 4 K E Y Y I 5 I W E J 4 I U <               ",
"              1 / T 5 P W W W U i U W W P 4 T T 1               ",
"              7 _ Q 3 F P U I I K P U P F 3 Q _ ,               ",
"              X , ; . @ : = = = 6 = = : @ . ; , X               ",
"                      * b v c c c c v b *                       ",
"                      * ( n - O O - n ( *                       ",
"                      * ( ) *     * ) ( *                       ",
"                    . > M m *     * m M > .                     ",
"                    X f B N +     + j V f o                     ",
"                    . + $ + .     . + + + .                     "
};
