/* XPM */
static char *_93f0c2bef06403cb297b3b436777b62l0xrCHJEBcnzF9FC[] = {
/* columns rows colors chars-per-pixel */
"32 32 155 2 ",
"   c #573617",
".  c #57371E",
"X  c #5B371F",
"o  c #53381B",
"O  c #5C3A1E",
"+  c #633511",
"@  c #6A3A14",
"#  c #633C1D",
"$  c #6A3C1B",
"%  c #5D3D24",
"&  c #563B28",
"*  c #5D3F29",
"=  c #623E23",
"-  c #683F21",
";  c #623F29",
":  c #5F4024",
">  c #5E4129",
",  c #644124",
"<  c #6A4324",
"1  c #63442A",
"2  c #6A462A",
"3  c #6D4B2F",
"4  c #754C2C",
"5  c #7F4E2D",
"6  c #7E522F",
"7  c #644731",
"8  c #6F4F36",
"9  c #754E32",
"0  c #784F31",
"q  c #6E5137",
"w  c #6D523B",
"e  c #755235",
"r  c #7B5434",
"t  c #74543B",
"y  c #7A563A",
"u  c #75593E",
"i  c #7C593D",
"p  c #6F5341",
"a  c #745642",
"s  c #7A5640",
"d  c #765A43",
"f  c #7B5B42",
"g  c #7D634B",
"h  c #80522E",
"j  c #815635",
"k  c #845836",
"l  c #895A35",
"z  c #83573A",
"x  c #835B3B",
"c  c #895E3E",
"v  c #815D42",
"b  c #866246",
"n  c #8E6444",
"m  c #8E6A47",
"M  c #83644B",
"N  c #8B664A",
"B  c #8D6A4D",
"V  c #936645",
"C  c #956946",
"Z  c #996A44",
"A  c #916649",
"S  c #936C4C",
"D  c #9A6D4B",
"F  c #9D714E",
"G  c #826651",
"H  c #856A54",
"J  c #8D6C52",
"K  c #926D52",
"L  c #9A6E50",
"P  c #8F7054",
"I  c #957154",
"U  c #9A7153",
"Y  c #94745A",
"T  c #9D775A",
"R  c #A0704C",
"E  c #A77D5E",
"W  c #AA7F5D",
"Q  c #AD7F5E",
"!  c #AF7E5E",
"~  c #AA7E5D",
"^  c #B47F5A",
"/  c #8E7261",
"(  c #917567",
")  c #967860",
"_  c #947862",
"`  c #947D66",
"'  c #9F7F66",
"]  c #9B7C67",
"[  c #9E7F6A",
"{  c #9A7E6A",
"}  c #997F70",
"|  c #A37E61",
" . c #A67F62",
".. c #A67F60",
"X. c #A97F61",
"o. c #A7815F",
"O. c #AA825F",
"+. c #AD815E",
"@. c #AF815F",
"#. c #AD825F",
"$. c #B38259",
"%. c #B5815A",
"&. c #B0805C",
"*. c #B0835C",
"=. c #B2825C",
"-. c #B3835F",
";. c #B4835C",
":. c #B98458",
">. c #BD835C",
",. c #B7885E",
"<. c #988066",
"1. c #9B826D",
"2. c #9A8375",
"3. c #A38064",
"4. c #A78267",
"5. c #A58265",
"6. c #AB8060",
"7. c #AC8363",
"8. c #A88366",
"9. c #AB8465",
"0. c #AD8667",
"q. c #AC8364",
"w. c #A78468",
"e. c #A4846B",
"r. c #A6866F",
"t. c #A48269",
"y. c #A88569",
"u. c #AB8669",
"i. c #AD8669",
"p. c #AD856B",
"a. c #AB866B",
"s. c #AE896E",
"d. c #AF8869",
"f. c #B08260",
"g. c #B18562",
"h. c #B18663",
"j. c #B38762",
"k. c #B28663",
"l. c #B08364",
"z. c #B18465",
"x. c #B38665",
"c. c #B28564",
"v. c #B58966",
"b. c #B78B66",
"n. c #B28A67",
"m. c #B98965",
"M. c #B88862",
"N. c #B18569",
"B. c #B38868",
"V. c #B58A6A",
"C. c #B08B6E",
"Z. c #B48A6B",
"A. c #B98E69",
"S. c #A18671",
"D. c #AC8A71",
/* pixels */
":.,.S I S B g u u y x.h.I K S S z r i e & & t z y y v.%.j j v.m.",
"$.*.B K I m y 8 y r ^ z.N N K N r r y e 7 7 9 y y v ^ *.j r W 7.",
"r x I M < + r x j h $ + , , . 1 i e % , v J i r l.^ U D , O 1 % ",
"j r B B , # r e j j @ $ = * * = y i O 1 J K v d l.Q L N 1 : % * ",
"h.W g y e r O , 4.9.C D K M z 4 *.#.= % i y p p O 3 ) r.i...i q ",
"j.#.i e i v : 7 [ y.S C K B v c *.~ - = t f a a = 1 ) 1.C.0.v u ",
"D Z b J | 3.d w * 1 B U z v X.Q D T A B x r % * 9 y D.e.Y B u s ",
"C U b b s.0.d d % ; B A y s ~ B.K J K A r y % , r x 5.e.P J y t ",
"I B d i S D 0.5.= , S A s u y v K K = = t x E n.z t U S - # y r ",
"B P q e U F 6.0.< # C S u f t y J A = 2 y i Q ~ i y A n < - j j ",
"s.w., O C C S K y e K S % % X = X # 4 0 t 9 2 - d a x z 4 j ^ >.",
"j.O., < C D S B d f J B 1 % $ $ - - j r z d , = q t y x r x ^ >.",
"M.j.r 4 l 6 i u M g t e y y ~ x.a. .y v 6.7.h.#.i f N N v y L L ",
";.+.c 6 l 6 i u g H d v d y Q f.s.D.e y z.A.7.f.y i J B v y J K ",
"r k 6 k $.,.*.0.K J J M 1 & x c K A < - C U y f y d 2.1.P K K K ",
"r r y r $.$.#.n.I N Y K % % t e S V $ $ Z S d q i u [ { H K K S ",
"m C r r k r U S r f K J % % % 1 y t V Z k y g u S C I B : 1 r j ",
"S m r r 4 r S S y f N N * & * ; 8 f C R i e 3 e Z D D K : : j h ",
"r b K K < # 4 r y y - % O % 8 8 s v n V r i : 1 7.z.N.y.a q L L ",
"r r m S - - i x r 9 , X 1 2 y f t e L D x f o : 6.n.0.5.g d J B ",
"u r B B e i W 0.x x N S y. .K N % ; X.Z.s. ., : D U U Y <.` f f ",
"u i S P f x 6.y.r e N U q.0.T B 1 1  .N.D. .1 O S S S I <.1.s u ",
"P M u y r y K S r x F S z j S K M g T N 2 ;   , C L S N f u % % ",
"B P e y r y S C r i n C z j D B g H H B ; = # < V V S S u 9 2 = ",
": : O : y y S m j 0 j x l.7.x r d a d y u e m m z j j z O.7.h.z.",
", O # , 9 i S S j r r x q.X.x t w w s t i i m m j j h k #.A.*.h.",
"q r P B i r y i r y r r L L S K d t 7 % : # , , 9 v ! x.Z Z D R ",
"i i m C k r i 6 r v 9 y J B M K i u : O :   # O 0 v X.V.Z Z D Z ",
"S m x 0 r k 5.0.y r % = s y 1 1 5.o.y u i y K J y s y r F F C Z ",
"F S i 4 c c o.d.v y O % s d * = *.h.x i e e B J d f d y m S N U ",
"C C 6 k O.o.T S B B s f { { w d C Z A S x u i d { ( _ H i r , O ",
"Z S r k h.d.C K I J t t [ S.a d Z Z L K i u t d } 2./ H u e % ; "
};
